<?xml version="1.0" standalone="no"?><!DOCTYPE svg PUBLIC "-//W3C//DTD SVG 1.1//EN" "http://www.w3.org/Graphics/SVG/1.1/DTD/svg11.dtd"><svg t="1747313216076" class="icon" viewBox="0 0 1024 1024" version="1.1" xmlns="http://www.w3.org/2000/svg" p-id="13036" xmlns:xlink="http://www.w3.org/1999/xlink" width="200" height="200"><path d="M817.1 960H206.9C128.1 960 64 895.9 64 817.1V206.9C64 128.1 128.1 64 206.9 64H817c78.9 0 143 64.1 143 142.9V817c0 78.9-64.1 143-142.9 143zM206.9 128c-43.5 0-78.9 35.4-78.9 78.9V817c0 43.5 35.4 78.9 78.9 78.9H817c43.5 0 78.9-35.4 78.9-78.9V206.9c0-43.5-35.4-78.9-78.9-78.9H206.9z" fill="#2c2c2c" p-id="13037"></path></svg>