<?xml version="1.0" standalone="no"?><!DOCTYPE svg PUBLIC "-//W3C//DTD SVG 1.1//EN" "http://www.w3.org/Graphics/SVG/1.1/DTD/svg11.dtd"><svg t="1747453442482" class="icon" viewBox="0 0 1024 1024" version="1.1" xmlns="http://www.w3.org/2000/svg" p-id="4047" xmlns:xlink="http://www.w3.org/1999/xlink" width="200" height="200"><path d="M512 59.136L119.808 285.5424v452.9152L512 964.864l392.192-226.4064V285.5424L512 59.136z m25.6-44.3392l392.192 226.4064a51.2 51.2 0 0 1 25.6 44.3392v452.9152a51.2 51.2 0 0 1-25.6 44.3392L537.6 1009.152a51.2 51.2 0 0 1-51.2 0L94.208 782.848a51.2 51.2 0 0 1-25.6-44.3392V285.5424a51.2 51.2 0 0 1 25.6-44.3392L486.4 14.848a51.2 51.2 0 0 1 51.2 0z" fill="#2c2c2c" p-id="4048"></path></svg>